<?xml version="1.0" standalone="no"?>
<!DOCTYPE svg PUBLIC "-//W3C//DTD SVG 20010904//EN"
 "http://www.w3.org/TR/2001/REC-SVG-20010904/DTD/svg10.dtd">
<svg version="1.0" xmlns="http://www.w3.org/2000/svg"
 width="1280.000000pt" height="1277.000000pt" viewBox="0 0 1280.000000 1277.000000"
 preserveAspectRatio="xMidYMid meet">
<metadata>
Created by potrace 1.15, written by Peter Selinger 2001-2017
</metadata>
<g transform="translate(0.000000,1277.000000) scale(0.100000,-0.100000)"
fill="#000000" stroke="none">
<path d="M3990 12515 c0 -228 1 -235 20 -235 19 0 20 7 20 235 0 228 -1 235
-20 235 -19 0 -20 -7 -20 -235z"/>
<path d="M4460 12515 c0 -228 1 -235 20 -235 19 0 20 7 20 235 0 228 -1 235
-20 235 -19 0 -20 -7 -20 -235z"/>
<path d="M4932 12518 c3 -212 5 -233 21 -236 16 -3 17 13 17 232 0 230 -1 236
-20 236 -20 0 -20 -5 -18 -232z"/>
<path d="M5410 12515 c0 -202 2 -235 15 -235 13 0 15 33 15 235 0 202 -2 235
-15 235 -13 0 -15 -33 -15 -235z"/>
<path d="M5880 12515 c0 -202 2 -235 15 -235 13 0 15 33 15 235 0 202 -2 235
-15 235 -13 0 -15 -33 -15 -235z"/>
<path d="M6350 12514 c0 -219 1 -235 18 -232 15 3 17 24 20 236 2 227 2 232
-18 232 -19 0 -20 -6 -20 -236z"/>
<path d="M6820 12515 c0 -228 1 -235 20 -235 19 0 20 7 20 235 0 228 -1 235
-20 235 -19 0 -20 -7 -20 -235z"/>
<path d="M7290 12515 c0 -228 1 -235 20 -235 19 0 20 7 20 235 0 228 -1 235
-20 235 -19 0 -20 -7 -20 -235z"/>
<path d="M7768 12515 c2 -198 5 -235 17 -235 13 0 15 35 15 235 0 217 -1 235
-17 235 -17 0 -18 -17 -15 -235z"/>
<path d="M8240 12515 c0 -202 2 -235 15 -235 13 0 15 33 15 235 0 202 -2 235
-15 235 -13 0 -15 -33 -15 -235z"/>
<path d="M8710 12515 c0 -202 2 -235 15 -235 13 0 15 33 15 235 0 202 -2 235
-15 235 -13 0 -15 -33 -15 -235z"/>
<path d="M470 12292 c0 -4 209 -216 465 -472 l465 -465 -116 -116 c-64 -64
-112 -119 -107 -122 12 -8 486 467 476 476 -4 4 -59 -44 -123 -108 l-115 -115
-465 465 c-256 256 -468 465 -472 465 -5 0 -8 -3 -8 -8z"/>
<path d="M11783 11838 l-463 -463 -114 114 c-76 76 -116 109 -121 101 -11 -17
456 -483 469 -470 7 7 -27 48 -102 123 l-112 112 465 465 c256 256 465 468
465 472 0 5 -6 8 -13 8 -6 0 -220 -208 -474 -462z"/>
<path d="M6165 11819 c-887 -30 -1788 -294 -2547 -748 -428 -256 -725 -486
-1074 -835 -425 -426 -733 -849 -999 -1371 -308 -609 -493 -1232 -565 -1915
-74 -695 -1 -1441 206 -2122 363 -1197 1128 -2231 2164 -2928 354 -238 794
-460 1195 -603 830 -297 1723 -386 2595 -261 888 127 1749 482 2465 1017 1012
756 1719 1818 2023 3042 80 320 129 622 150 930 11 171 7 706 -6 840 -82 795
-272 1431 -625 2097 -253 478 -547 871 -956 1278 -441 440 -881 756 -1426
1025 -816 402 -1673 584 -2600 554z m175 -119 l0 -90 -105 0 c-98 0 -105 -1
-105 -20 0 -19 7 -20 105 -20 l105 0 0 -215 0 -215 -105 0 c-98 0 -105 -1
-105 -20 0 -19 7 -20 105 -20 l105 0 -2 -216 -3 -216 -100 -2 c-86 -1 -100 -3
-103 -18 -3 -16 7 -18 102 -18 l106 0 0 -220 0 -220 -105 0 c-87 0 -105 -3
-105 -15 0 -12 18 -15 105 -15 l105 0 0 -220 0 -220 -105 0 c-87 0 -105 -3
-105 -15 0 -12 18 -15 105 -15 l105 0 0 -220 0 -220 -106 0 c-95 0 -105 -2
-102 -17 3 -16 17 -18 103 -20 l100 -2 3 -215 2 -216 -105 0 c-98 0 -105 -1
-105 -20 0 -19 7 -20 105 -20 l105 0 0 -215 0 -215 -105 0 c-98 0 -105 -1
-105 -20 0 -19 7 -20 105 -20 l105 0 0 -215 0 -214 -102 -3 c-89 -3 -103 -5
-106 -20 -3 -16 7 -18 102 -18 l106 0 0 -220 0 -220 -105 0 c-87 0 -105 -3
-105 -15 0 -12 18 -15 105 -15 l105 0 0 -220 0 -220 -105 0 c-87 0 -105 -3
-105 -15 0 -12 18 -15 105 -15 l105 0 0 -215 0 -215 -215 0 -215 0 0 105 c0
87 -3 105 -15 105 -12 0 -15 -18 -15 -105 l0 -105 -220 0 -220 0 0 105 c0 87
-3 105 -15 105 -12 0 -15 -18 -15 -105 l0 -105 -220 0 -220 0 0 105 c0 98 -1
105 -20 105 -19 0 -20 -7 -20 -105 l0 -105 -215 0 -215 0 0 105 c0 98 -1 105
-20 105 -19 0 -20 -7 -20 -105 l0 -105 -215 0 -215 0 0 105 c0 98 -1 105 -20
105 -19 0 -20 -7 -20 -105 l0 -105 -216 2 -215 3 -2 100 c-2 86 -4 100 -19
103 -16 3 -18 -7 -18 -102 l0 -106 -220 0 -220 0 0 105 c0 87 -3 105 -15 105
-12 0 -15 -18 -15 -105 l0 -105 -220 0 -220 0 0 105 c0 87 -3 105 -15 105 -12
0 -15 -18 -15 -105 l0 -105 -220 0 -220 0 0 106 c0 95 -2 105 -17 102 -16 -3
-18 -17 -20 -103 l-2 -100 -215 -3 -216 -2 0 105 c0 98 -1 105 -20 105 -19 0
-20 -7 -20 -105 l0 -105 -215 0 -215 0 0 105 c0 98 -1 105 -20 105 -19 0 -20
-7 -20 -105 l0 -105 -87 0 -86 0 6 183 c38 1072 408 2123 1061 3007 283 383
712 814 1092 1095 431 320 865 556 1364 742 543 202 1150 318 1743 331 l87 2
0 -90z m545 64 c691 -69 1310 -250 1920 -559 529 -269 938 -567 1371 -999 283
-284 467 -506 671 -811 507 -761 807 -1617 887 -2535 9 -96 16 -232 16 -302
l0 -128 -90 0 -90 0 0 105 c0 87 -3 105 -15 105 -12 0 -15 -18 -15 -105 l0
-105 -220 0 -220 0 0 105 c0 87 -3 105 -15 105 -12 0 -15 -18 -15 -105 l0
-105 -220 0 -220 0 0 106 c0 95 -2 105 -17 102 -16 -3 -18 -17 -19 -103 l-2
-100 -216 -3 -216 -2 0 105 c0 98 -1 105 -20 105 -19 0 -20 -7 -20 -105 l0
-105 -215 0 -215 0 0 105 c0 98 -1 105 -20 105 -19 0 -20 -7 -20 -105 l0 -105
-216 2 -215 3 -2 100 c-2 86 -4 100 -19 103 -16 3 -18 -7 -18 -102 l0 -106
-220 0 -220 0 0 105 c0 87 -3 105 -15 105 -12 0 -15 -18 -15 -105 l0 -105
-220 0 -220 0 0 105 c0 87 -3 105 -15 105 -12 0 -15 -18 -15 -105 l0 -105
-220 0 -220 0 0 105 c0 86 -3 105 -15 105 -11 0 -15 -20 -17 -102 l-3 -103
-217 -3 -218 -2 0 105 c0 98 -1 105 -20 105 -19 0 -20 -7 -20 -105 l0 -105
-215 0 -215 0 0 105 c0 98 -1 105 -20 105 -19 0 -20 -7 -20 -105 l0 -105 -210
0 -210 0 0 215 0 215 100 0 c82 0 100 3 100 15 0 12 -18 15 -100 15 l-100 0 0
220 0 220 100 0 c82 0 100 3 100 15 0 12 -18 15 -100 15 l-100 0 0 220 0 220
100 0 c94 0 100 1 100 21 0 19 -5 20 -100 17 l-100 -3 0 218 0 217 100 0 c93
0 100 1 100 20 0 19 -7 20 -100 20 l-100 0 0 215 0 215 100 0 c93 0 100 1 100
20 0 19 -7 20 -100 20 l-100 0 0 218 0 217 100 -3 c95 -3 100 -2 100 17 0 20
-6 21 -100 21 l-100 0 0 220 0 220 100 0 c82 0 100 3 100 15 0 12 -18 15 -100
15 l-100 0 0 220 0 220 100 0 c82 0 100 3 100 15 0 12 -18 15 -100 15 l-100 0
0 220 0 220 100 0 c94 0 100 1 100 21 0 19 -5 20 -100 17 l-100 -3 0 218 0
217 100 0 c93 0 100 1 100 20 0 19 -7 20 -100 20 l-100 0 0 215 0 215 100 0
c93 0 100 1 100 20 0 19 -7 20 -100 20 l-100 0 0 91 0 92 168 -7 c92 -4 235
-14 317 -22z m-5725 -5494 c0 -93 1 -100 20 -100 19 0 20 7 20 100 l0 100 215
0 215 0 0 -100 c0 -93 1 -100 20 -100 19 0 20 7 20 100 l0 100 218 0 217 0 -3
-100 c-3 -95 -2 -100 17 -100 20 0 21 6 21 100 l0 100 220 0 220 0 0 -100 c0
-82 3 -100 15 -100 12 0 15 18 15 100 l0 100 220 0 220 0 0 -100 c0 -82 3
-100 15 -100 12 0 15 18 15 100 l0 100 220 0 220 0 0 -100 c0 -94 1 -100 21
-100 19 0 20 5 17 100 l-3 100 218 0 217 0 0 -100 c0 -93 1 -100 20 -100 19 0
20 7 20 100 l0 100 215 0 215 0 0 -100 c0 -93 1 -100 20 -100 19 0 20 7 20
100 l0 100 218 0 217 0 -3 -100 c-3 -95 -2 -100 17 -100 20 0 21 6 21 100 l0
100 220 0 220 0 0 -100 c0 -82 3 -100 15 -100 12 0 15 18 15 100 l0 100 220 0
220 0 0 -100 c0 -82 3 -100 15 -100 12 0 15 18 15 100 l0 100 215 0 215 0 0
-210 0 -210 -105 0 c-98 0 -105 -1 -105 -20 0 -19 7 -20 105 -20 l105 0 0
-215 0 -215 -105 0 c-98 0 -105 -1 -105 -20 0 -19 7 -20 105 -20 l105 0 0
-215 0 -214 -102 -3 c-89 -3 -103 -5 -106 -20 -3 -16 7 -18 102 -18 l106 0 0
-220 0 -220 -105 0 c-87 0 -105 -3 -105 -15 0 -12 18 -15 105 -15 l105 0 0
-220 0 -220 -105 0 c-87 0 -105 -3 -105 -15 0 -12 18 -15 105 -15 l105 0 0
-220 0 -220 -106 0 c-95 0 -105 -2 -102 -17 3 -16 17 -18 103 -20 l100 -2 3
-215 2 -216 -105 0 c-98 0 -105 -1 -105 -20 0 -19 7 -20 105 -20 l105 0 0
-215 0 -215 -105 0 c-98 0 -105 -1 -105 -20 0 -19 7 -20 105 -20 l105 0 0
-215 0 -214 -102 -3 c-89 -3 -103 -5 -106 -20 -3 -16 7 -18 102 -18 l106 0 0
-220 0 -220 -105 0 c-87 0 -105 -3 -105 -15 0 -12 18 -15 105 -15 l105 0 0
-220 0 -220 -105 0 c-87 0 -105 -3 -105 -15 0 -12 18 -15 105 -15 l105 0 0
-92 0 -91 -197 6 c-1515 49 -2996 794 -3959 1992 -731 910 -1149 2024 -1191
3175 l-6 180 86 0 87 0 0 -100z m5660 0 c0 -93 1 -100 20 -100 19 0 20 7 20
100 l0 100 215 0 215 0 0 -100 c0 -93 1 -100 20 -100 19 0 20 7 20 100 l0 100
221 0 220 0 -3 -100 c-3 -90 -1 -100 15 -100 15 0 17 11 17 100 l0 100 220 0
220 0 0 -100 c0 -82 3 -100 15 -100 12 0 15 18 15 100 l0 100 220 0 220 0 0
-100 c0 -82 3 -100 15 -100 12 0 15 18 15 100 l0 100 220 0 220 0 0 -100 c0
-94 1 -100 21 -100 19 0 20 5 17 100 l-3 100 218 0 217 0 0 -100 c0 -93 1
-100 20 -100 19 0 20 7 20 100 l0 100 215 0 215 0 0 -100 c0 -93 1 -100 20
-100 19 0 20 7 20 100 l0 100 218 0 217 0 -3 -100 c-3 -95 -2 -100 17 -100 20
0 21 6 21 100 l0 100 220 0 220 0 0 -100 c0 -82 3 -100 15 -100 12 0 15 18 15
100 l0 100 220 0 220 0 0 -100 c0 -82 3 -100 15 -100 12 0 15 18 15 100 l0
100 92 0 91 0 -6 -197 c-16 -491 -105 -978 -271 -1476 -320 -959 -891 -1794
-1670 -2441 -899 -748 -2062 -1195 -3208 -1233 l-198 -6 0 91 0 92 100 0 c82
0 100 3 100 15 0 12 -18 15 -100 15 l-100 0 0 220 0 220 100 0 c82 0 100 3
100 15 0 12 -18 15 -100 15 l-100 0 0 220 0 220 100 0 c94 0 100 1 100 21 0
19 -5 20 -100 17 l-100 -3 0 218 0 217 100 0 c93 0 100 1 100 20 0 19 -7 20
-100 20 l-100 0 0 215 0 215 100 0 c93 0 100 1 100 20 0 19 -7 20 -100 20
l-100 0 0 218 0 217 100 -3 c95 -3 100 -2 100 17 0 20 -6 21 -100 21 l-100 0
0 220 0 220 100 0 c82 0 100 3 100 15 0 12 -18 15 -100 15 l-100 0 0 220 0
220 100 0 c82 0 100 3 100 15 0 12 -18 15 -100 15 l-100 0 0 220 0 220 100 0
c94 0 100 1 100 21 0 19 -5 20 -100 17 l-100 -3 0 218 0 217 100 0 c93 0 100
1 100 20 0 19 -7 20 -100 20 l-100 0 0 215 0 215 100 0 c93 0 100 1 100 20 0
19 -7 20 -100 20 l-100 0 0 210 0 210 210 0 210 0 0 -100z"/>
<path d="M2820 9945 c-129 -129 -231 -238 -227 -242 4 -4 59 44 122 107 l115
115 1293 -1293 c711 -711 1296 -1289 1300 -1285 4 4 -574 589 -1285 1300
l-1293 1293 113 113 c105 105 123 127 104 127 -4 0 -113 -106 -242 -235z"/>
<path d="M9666 10173 c-4 -4 44 -58 106 -120 l113 -113 -1294 -1294 c-862
-862 -1289 -1296 -1281 -1301 8 -5 446 426 1304 1284 l1291 1291 111 -111 c73
-72 116 -109 124 -104 8 5 -65 85 -221 241 -129 129 -237 234 -240 234 -3 0
-9 -3 -13 -7z"/>
<path d="M4122 4177 l-1292 -1292 -114 114 c-76 76 -116 109 -121 101 -11 -17
456 -483 469 -470 7 7 -27 48 -102 123 l-112 112 1292 1292 c861 861 1289
1296 1282 1303 -6 6 -441 -422 -1302 -1283z"/>
<path d="M7310 5452 c0 -4 580 -587 1290 -1297 l1290 -1290 -116 -116 c-64
-64 -112 -119 -107 -122 12 -8 486 467 476 476 -4 4 -59 -44 -123 -108 l-115
-115 -1290 1290 c-710 710 -1293 1290 -1297 1290 -5 0 -8 -3 -8 -8z"/>
<path d="M20 8760 c0 -19 7 -20 235 -20 228 0 235 1 235 20 0 19 -7 20 -235
20 -228 0 -235 -1 -235 -20z"/>
<path d="M12310 8760 c0 -19 7 -20 235 -20 228 0 235 1 235 20 0 19 -7 20
-235 20 -228 0 -235 -1 -235 -20z"/>
<path d="M20 8290 c0 -19 7 -20 235 -20 228 0 235 1 235 20 0 19 -7 20 -235
20 -228 0 -235 -1 -235 -20z"/>
<path d="M12310 8290 c0 -19 7 -20 235 -20 228 0 235 1 235 20 0 19 -7 20
-235 20 -228 0 -235 -1 -235 -20z"/>
<path d="M20 7820 c0 -19 6 -20 236 -20 219 0 235 1 232 18 -3 15 -24 17 -236
20 -227 2 -232 2 -232 -18z"/>
<path d="M12317 7833 c-4 -3 -7 -12 -7 -20 0 -10 46 -13 235 -13 228 0 235 1
235 20 0 19 -7 20 -228 20 -126 0 -232 -3 -235 -7z"/>
<path d="M20 7345 c0 -13 33 -15 235 -15 202 0 235 2 235 15 0 13 -33 15 -235
15 -202 0 -235 -2 -235 -15z"/>
<path d="M12310 7345 c0 -13 33 -15 235 -15 202 0 235 2 235 15 0 13 -33 15
-235 15 -202 0 -235 -2 -235 -15z"/>
<path d="M20 6875 c0 -13 33 -15 235 -15 202 0 235 2 235 15 0 13 -33 15 -235
15 -202 0 -235 -2 -235 -15z"/>
<path d="M12310 6875 c0 -13 33 -15 235 -15 202 0 235 2 235 15 0 13 -33 15
-235 15 -202 0 -235 -2 -235 -15z"/>
<path d="M20 6400 c0 -21 4 -21 232 -18 212 3 233 5 236 21 3 16 -13 17 -232
17 -231 0 -236 0 -236 -20z"/>
<path d="M12312 6403 c3 -16 24 -18 236 -21 228 -3 232 -3 232 18 0 20 -5 20
-236 20 -219 0 -235 -1 -232 -17z"/>
<path d="M20 5930 c0 -19 7 -20 235 -20 228 0 235 1 235 20 0 19 -7 20 -235
20 -228 0 -235 -1 -235 -20z"/>
<path d="M12310 5930 c0 -19 7 -20 235 -20 228 0 235 1 235 20 0 19 -7 20
-235 20 -228 0 -235 -1 -235 -20z"/>
<path d="M20 5460 c0 -19 7 -20 235 -20 228 0 235 1 235 20 0 19 -7 20 -235
20 -228 0 -235 -1 -235 -20z"/>
<path d="M12310 5460 c0 -19 7 -20 235 -20 228 0 235 1 235 20 0 19 -7 20
-235 20 -228 0 -235 -1 -235 -20z"/>
<path d="M20 4990 c0 -19 6 -20 236 -20 219 0 235 1 232 18 -3 15 -24 17 -236
20 -227 2 -232 2 -232 -18z"/>
<path d="M12317 5003 c-4 -3 -7 -12 -7 -20 0 -10 46 -13 235 -13 228 0 235 1
235 20 0 19 -7 20 -228 20 -126 0 -232 -3 -235 -7z"/>
<path d="M20 4515 c0 -13 33 -15 235 -15 202 0 235 2 235 15 0 13 -33 15 -235
15 -202 0 -235 -2 -235 -15z"/>
<path d="M12310 4515 c0 -13 33 -15 235 -15 202 0 235 2 235 15 0 13 -33 15
-235 15 -202 0 -235 -2 -235 -15z"/>
<path d="M20 4045 c0 -13 33 -15 235 -15 202 0 235 2 235 15 0 13 -33 15 -235
15 -202 0 -235 -2 -235 -15z"/>
<path d="M12310 4045 c0 -13 33 -15 235 -15 202 0 235 2 235 15 0 13 -33 15
-235 15 -202 0 -235 -2 -235 -15z"/>
<path d="M1176 1683 c-4 -4 44 -58 106 -120 l113 -113 -463 -463 c-254 -254
-462 -468 -462 -475 0 -6 3 -12 8 -12 4 0 216 209 472 465 l465 465 111 -111
c72 -72 116 -109 124 -104 8 5 -66 86 -221 241 -129 129 -237 234 -240 234 -3
0 -9 -3 -13 -7z"/>
<path d="M11310 1455 c-129 -129 -231 -238 -227 -242 4 -4 59 44 122 107 l115
115 468 -468 c257 -257 471 -464 475 -460 4 4 -203 218 -460 475 l-468 468
113 113 c105 105 123 127 104 127 -4 0 -113 -106 -242 -235z"/>
<path d="M3990 255 c0 -228 1 -235 20 -235 19 0 20 7 20 235 0 228 -1 235 -20
235 -19 0 -20 -7 -20 -235z"/>
<path d="M4460 255 c0 -228 1 -235 20 -235 19 0 20 7 20 235 0 228 -1 235 -20
235 -19 0 -20 -7 -20 -235z"/>
<path d="M4937 483 c-4 -3 -7 -109 -7 -235 0 -221 1 -228 20 -228 19 0 20 7
20 235 0 189 -3 235 -13 235 -8 0 -17 -3 -20 -7z"/>
<path d="M5410 255 c0 -202 2 -235 15 -235 13 0 15 33 15 235 0 202 -2 235
-15 235 -13 0 -15 -33 -15 -235z"/>
<path d="M5880 255 c0 -202 2 -235 15 -235 13 0 15 33 15 235 0 202 -2 235
-15 235 -13 0 -15 -33 -15 -235z"/>
<path d="M6350 256 c0 -230 1 -236 20 -236 20 0 20 5 18 232 -3 212 -5 233
-20 236 -17 3 -18 -13 -18 -232z"/>
<path d="M6820 255 c0 -228 1 -235 20 -235 19 0 20 7 20 235 0 228 -1 235 -20
235 -19 0 -20 -7 -20 -235z"/>
<path d="M7290 255 c0 -228 1 -235 20 -235 19 0 20 7 20 235 0 228 -1 235 -20
235 -19 0 -20 -7 -20 -235z"/>
<path d="M7768 255 c-3 -218 -2 -235 15 -235 16 0 17 18 17 235 0 200 -2 235
-15 235 -12 0 -15 -37 -17 -235z"/>
<path d="M8240 255 c0 -202 2 -235 15 -235 13 0 15 33 15 235 0 202 -2 235
-15 235 -13 0 -15 -33 -15 -235z"/>
<path d="M8710 255 c0 -202 2 -235 15 -235 13 0 15 33 15 235 0 202 -2 235
-15 235 -13 0 -15 -33 -15 -235z"/>
</g>
</svg>
